{"asset":{"version":"2.0","generator":"Blockbench 5.1.5 glTF exporter"},"scenes":[{"nodes":[9],"name":"blockbench_export"}],"scene":0,"nodes":[{"rotation":[0.5913096483635824,0,0,0.8064446042674827],"translation":[1.125,0.125,0.3125],"name":"mesh","mesh":0},{"rotation":[-0.5913096483635824,0,0,0.8064446042674827],"translation":[1.125,0.125,-0.3125],"name":"mesh","mesh":1},{"rotation":[-0.5913096483635824,0,0,0.8064446042674827],"translation":[0.875,0.125,-0.3125],"name":"mesh","mesh":2},{"rotation":[0.5913096483635824,0,0,0.8064446042674827],"translation":[0.875,0.125,0.3125],"name":"mesh","mesh":3},{"translation":[-0.984375,-0.25,0],"name":"legs","children":[0,1,2,3]},{"translation":[0.875,0,0],"name":"mesh","mesh":4},{"translation":[1,0,0],"name":"mesh","mesh":5},{"translation":[1.125,0,0],"name":"mesh","mesh":6},{"translation":[-0.984375,-0.25,0],"name":"top","children":[5,6,7]},{"translation":[-0.015625,0.25,0],"name":"table","children":[4,8]}],"bufferViews":[{"buffer":0,"byteOffset":0,"byteLength":672,"target":34962,"byteStride":12},{"buffer":0,"byteOffset":672,"byteLength":672,"target":34962,"byteStride":12},{"buffer":0,"byteOffset":1344,"byteLength":448,"target":34962,"byteStride":8},{"buffer":0,"byteOffset":1792,"byteLength":168,"target":34963},{"buffer":0,"byteOffset":1960,"byteLength":672,"target":34962,"byteStride":12},{"buffer":0,"byteOffset":2632,"byteLength":672,"target":34962,"byteStride":12},{"buffer":0,"byteOffset":3304,"byteLength":448,"target":34962,"byteStride":8},{"buffer":0,"byteOffset":3752,"byteLength":168,"target":34963},{"buffer":0,"byteOffset":3920,"byteLength":672,"target":34962,"byteStride":12},{"buffer":0,"byteOffset":4592,"byteLength":672,"target":34962,"byteStride":12},{"buffer":0,"byteOffset":5264,"byteLength":448,"target":34962,"byteStride":8},{"buffer":0,"byteOffset":5712,"byteLength":168,"target":34963},{"buffer":0,"byteOffset":5880,"byteLength":672,"target":34962,"byteStride":12},{"buffer":0,"byteOffset":6552,"byteLength":672,"target":34962,"byteStride":12},{"buffer":0,"byteOffset":7224,"byteLength":448,"target":34962,"byteStride":8},{"buffer":0,"byteOffset":7672,"byteLength":168,"target":34963},{"buffer":0,"byteOffset":7840,"byteLength":672,"target":34962,"byteStride":12},{"buffer":0,"byteOffset":8512,"byteLength":672,"target":34962,"byteStride":12},{"buffer":0,"byteOffset":9184,"byteLength":448,"target":34962,"byteStride":8},{"buffer":0,"byteOffset":9632,"byteLength":168,"target":34963},{"buffer":0,"byteOffset":9800,"byteLength":672,"target":34962,"byteStride":12},{"buffer":0,"byteOffset":10472,"byteLength":672,"target":34962,"byteStride":12},{"buffer":0,"byteOffset":11144,"byteLength":448,"target":34962,"byteStride":8},{"buffer":0,"byteOffset":11592,"byteLength":168,"target":34963},{"buffer":0,"byteOffset":11760,"byteLength":672,"target":34962,"byteStride":12},{"buffer":0,"byteOffset":12432,"byteLength":672,"target":34962,"byteStride":12},{"buffer":0,"byteOffset":13104,"byteLength":448,"target":34962,"byteStride":8},{"buffer":0,"byteOffset":13552,"byteLength":168,"target":34963}],"buffers":[{"byteLength":13720,"uri":"data:application/octet-stream;base64,"}],"accessors":[{"bufferView":0,"componentType":5126,"count":56,"max":[0.03125,0.03125,0.14356625080108643],"min":[-0.03125,-0.03125,-0.13750000298023224],"type":"VEC3"},{"bufferView":1,"componentType":5126,"count":56,"max":[1,1,0.9625147581100464],"min":[-1,-0.99993896484375,-1],"type":"VEC3"},{"bufferView":2,"componentType":5126,"count":56,"max":[1,1],"min":[0,0],"type":"VEC2"},{"bufferView":3,"componentType":5123,"count":84,"max":[55],"min":[0],"type":"SCALAR"},{"bufferView":4,"componentType":5126,"count":56,"max":[0.03125,0.03125,0.13750000298023224],"min":[-0.03125,-0.03125,-0.14356625080108643],"type":"VEC3"},{"bufferView":5,"componentType":5126,"count":56,"max":[1,1,1],"min":[-1,-0.99993896484375,-0.9625147581100464],"type":"VEC3"},{"bufferView":6,"componentType":5126,"count":56,"max":[1,1],"min":[0,0],"type":"VEC2"},{"bufferView":7,"componentType":5123,"count":84,"max":[55],"min":[0],"type":"SCALAR"},{"bufferView":8,"componentType":5126,"count":56,"max":[0.03125,0.03125,0.13750000298023224],"min":[-0.03125,-0.03125,-0.14356625080108643],"type":"VEC3"},{"bufferView":9,"componentType":5126,"count":56,"max":[1,1,1],"min":[-1,-0.99993896484375,-0.9625147581100464],"type":"VEC3"},{"bufferView":10,"componentType":5126,"count":56,"max":[1,1],"min":[0,0],"type":"VEC2"},{"bufferView":11,"componentType":5123,"count":84,"max":[55],"min":[0],"type":"SCALAR"},{"bufferView":12,"componentType":5126,"count":56,"max":[0.03125,0.03125,0.14356625080108643],"min":[-0.03125,-0.03125,-0.13750000298023224],"type":"VEC3"},{"bufferView":13,"componentType":5126,"count":56,"max":[1,1,0.9625147581100464],"min":[-1,-0.99993896484375,-1],"type":"VEC3"},{"bufferView":14,"componentType":5126,"count":56,"max":[1,1],"min":[0,0],"type":"VEC2"},{"bufferView":15,"componentType":5123,"count":84,"max":[55],"min":[0],"type":"SCALAR"},{"bufferView":16,"componentType":5126,"count":56,"max":[0.0625,0.28125,0.38749998807907104],"min":[-0.0625,0.21875,-0.38749998807907104],"type":"VEC3"},{"bufferView":17,"componentType":5126,"count":56,"max":[1,1,1],"min":[-1,-1,-1],"type":"VEC3"},{"bufferView":18,"componentType":5126,"count":56,"max":[1,1],"min":[0,0],"type":"VEC2"},{"bufferView":19,"componentType":5123,"count":84,"max":[55],"min":[0],"type":"SCALAR"},{"bufferView":20,"componentType":5126,"count":56,"max":[0.0625,0.28125,0.38749998807907104],"min":[-0.0625,0.21875,-0.38749998807907104],"type":"VEC3"},{"bufferView":21,"componentType":5126,"count":56,"max":[1,1,1],"min":[-1,-1,-1],"type":"VEC3"},{"bufferView":22,"componentType":5126,"count":56,"max":[1,1],"min":[0,0],"type":"VEC2"},{"bufferView":23,"componentType":5123,"count":84,"max":[55],"min":[0],"type":"SCALAR"},{"bufferView":24,"componentType":5126,"count":56,"max":[0.0625,0.28125,0.38749998807907104],"min":[-0.0625,0.21875,-0.38749998807907104],"type":"VEC3"},{"bufferView":25,"componentType":5126,"count":56,"max":[1,1,1],"min":[-1,-1,-1],"type":"VEC3"},{"bufferView":26,"componentType":5126,"count":56,"max":[1,1],"min":[0,0],"type":"VEC2"},{"bufferView":27,"componentType":5123,"count":84,"max":[55],"min":[0],"type":"SCALAR"}],"materials":[{"pbrMetallicRoughness":{"metallicFactor":0,"roughnessFactor":1},"alphaMode":"MASK","alphaCutoff":0.05,"doubleSided":true}],"meshes":[{"primitives":[{"mode":4,"attributes":{"POSITION":0,"NORMAL":1,"TEXCOORD_0":2},"indices":3,"material":0}]},{"primitives":[{"mode":4,"attributes":{"POSITION":4,"NORMAL":5,"TEXCOORD_0":6},"indices":7,"material":0}]},{"primitives":[{"mode":4,"attributes":{"POSITION":8,"NORMAL":9,"TEXCOORD_0":10},"indices":11,"material":0}]},{"primitives":[{"mode":4,"attributes":{"POSITION":12,"NORMAL":13,"TEXCOORD_0":14},"indices":15,"material":0}]},{"primitives":[{"mode":4,"attributes":{"POSITION":16,"NORMAL":17,"TEXCOORD_0":18},"indices":19,"material":0}]},{"primitives":[{"mode":4,"attributes":{"POSITION":20,"NORMAL":21,"TEXCOORD_0":22},"indices":23,"material":0}]},{"primitives":[{"mode":4,"attributes":{"POSITION":24,"NORMAL":25,"TEXCOORD_0":26},"indices":27,"material":0}]}]}